<svg xmlns="http://www.w3.org/2000/svg" width="59.495" height="46.975" viewBox="0 0 59.495 46.975"><defs><style>.a{fill:#454b60;}</style></defs><path class="a" d="M47.174,70.285A16.635,16.635,0,0,0,14.259,67.1H14.1a14.1,14.1,0,1,0,0,28.2h9.847a1.269,1.269,0,0,0,0-2.538H14.1a11.562,11.562,0,1,1,0-23.124c.34,0,.7.018,1.1.056A1.27,1.27,0,0,0,16.574,68.6a14.1,14.1,0,0,1,28.064,1.92c0,.28-.021.569-.043.874l-.009.13a1.269,1.269,0,0,0,1.393,1.352,10.12,10.12,0,0,1,1.012-.051,9.967,9.967,0,1,1,0,19.935H36.635a1.269,1.269,0,1,0,0,2.538H46.99a12.5,12.5,0,0,0,.184-25.008Z" transform="translate(0 -53.873)"/><g transform="translate(19.956 5.963)"><g transform="translate(0 0)"><path class="a" d="M182.316,105.192a10.7,10.7,0,0,0-10.564,9.222,1.269,1.269,0,0,0,1.086,1.429,1.288,1.288,0,0,0,.173.012,1.269,1.269,0,0,0,1.255-1.1,8.155,8.155,0,0,1,8.05-7.028,1.269,1.269,0,0,0,0-2.538Z" transform="translate(-171.74 -105.192)"/></g></g><g transform="translate(23.856 26.274)"><path class="a" d="M217.748,284.638l-4.615-4.123a2.094,2.094,0,0,0-2.792,0l-4.615,4.123a1.269,1.269,0,1,0,1.691,1.893l3.052-2.726v15.609a1.269,1.269,0,0,0,2.538,0V283.8l3.052,2.726a1.269,1.269,0,1,0,1.69-1.893Z" transform="translate(-205.302 -279.982)"/></g></svg>