<svg xmlns="http://www.w3.org/2000/svg" width="26.25" height="28" viewBox="0 0 26.25 28"><defs><style>.a{fill:#e39648;}</style></defs><g transform="translate(-16)"><g transform="translate(22.125)"><path class="a" d="M141.919,12.763a.873.873,0,0,0-.8-.513h-3.5V.875A.875.875,0,0,0,136.748,0h-3.5a.875.875,0,0,0-.875.875V12.25h-3.5a.875.875,0,0,0-.658,1.451l6.125,7a.873.873,0,0,0,1.316,0l6.125-7A.872.872,0,0,0,141.919,12.763Z" transform="translate(-127.998)"/></g><g transform="translate(16 19.25)"><path class="a" d="M38.75,352v5.25H19.5V352H16v7a1.75,1.75,0,0,0,1.75,1.75H40.5A1.748,1.748,0,0,0,42.25,359v-7Z" transform="translate(-16 -352)"/></g></g></svg>