<svg xmlns="http://www.w3.org/2000/svg" width="22.689" height="22.689" viewBox="0 0 22.689 22.689"><defs><style>.a{fill:#454b60;}.b{fill:#fa8d28;}</style></defs><circle class="a" cx="1.108" cy="1.108" r="1.108" transform="translate(10.237 15.665)"/><path class="b" d="M11.344,0A11.344,11.344,0,1,0,22.689,11.344,11.338,11.338,0,0,0,11.344,0Zm0,20.916a9.572,9.572,0,1,1,9.572-9.572A9.567,9.567,0,0,1,11.344,20.916Z"/><path class="a" d="M179.545,128.5A3.549,3.549,0,0,0,176,132.045a.886.886,0,0,0,1.773,0,1.773,1.773,0,1,1,1.773,1.773.886.886,0,0,0-.886.886v2.216a.886.886,0,0,0,1.773,0v-1.442a3.545,3.545,0,0,0-.886-6.978Z" transform="translate(-168.201 -122.806)"/></svg>